# xmcd
#
# Track frame offsets:
#	150
#	2556
#	24597
#	57687
#	92091
#	112997
#	142557
#	168656
#	185064
#
# Disc length: 2824 seconds
#
# Revision: 0
# Processed by: cddbd v1.4b41PL1 Copyright (c) Steve Scherf et al.
# Submitted via: audiograbber 1.80
#
DISCID=700b0609
DTITLE=Marc Cohn - Live at KFOG
DYEAR=1900
DGENRE=
TTITLE0=Introduction
TTITLE1=Silver Thunderbird
TTITLE2=Walk through the world
TTITLE3=Olana
TTITLE4=Lost you in the canyon
TTITLE5=Already home
TTITLE6=Ghost train
TTITLE7=Valley of the kings
TTITLE8=The things we've handed down
EXTD=
EXTT0=
EXTT1=
EXTT2=
EXTT3=
EXTT4=
EXTT5=
EXTT6=
EXTT7=
EXTT8=
PLAYORDER=
